<?xml version="1.0" encoding="utf-8"?>
<!-- Generator: Adobe Illustrator 27.0.0, SVG Export Plug-In . SVG Version: 6.00 Build 0)  -->
<svg version="1.1" xmlns="http://www.w3.org/2000/svg" xmlns:xlink="http://www.w3.org/1999/xlink" x="0px" y="0px"
	 viewBox="0 0 1000 320" style="enable-background:new 0 0 1000 320;" xml:space="preserve">
<style type="text/css">
	.st0{display:none;}
	.st1{display:inline;stroke:#FFFFFF;stroke-miterlimit:10;}
	.st2{fill:#FFFFFF;stroke:#FFFFFF;stroke-width:6;stroke-miterlimit:10;}
	.st3{fill:#FBAA19;}
	.st4{fill:#249647;}
	.st5{fill:#E51E25;}
	.st6{fill:#92C03E;}
	.st7{fill:#ABCC3B;}
	.st8{fill:#E65260;}
	.st9{fill:#FEC44B;}
	.st10{fill:#6D2B5D;}
	.st11{fill:#81336E;}
	.st12{fill:#FED500;}
	.st13{fill:#FFE24D;}
	.st14{fill:#FAFBFC;}
	.st15{fill:#229547;}
</style>
<g id="Layer_2" class="st0">
	<rect x="-2" y="-2" class="st1" width="1010" height="327"/>
</g>
<g id="Layer_3">
	<g>
		<g>
			<path class="st2" d="M302.1,147.2c17.7-7.9,3.1-32.9-13.4-20c-12,9.3-23.2,34.4-28.2,48.8C275.4,161.5,285.3,154.7,302.1,147.2z"
				/>
			<path class="st2" d="M10.3,92c13.8,10.2,21.4,18.4,32.2,34.6c-1.7-14.2-6.8-39.3-15.9-50.2C13.3,60.5-4.4,81.1,10.3,92z"/>
			<circle class="st2" cx="265.4" cy="106" r="10.9"/>
			<path class="st2" d="M231.7,169.9c0-4.1-0.3-8.1-0.8-12.1l-195.8-8.5c-1.6,6.6-2.4,13.6-2.4,20.7c0,7.1,0.8,14,2.4,20.7
				l195.8-8.5C231.5,178,231.7,174,231.7,169.9z"/>
			<path class="st2" d="M35.1,149.2c-1,4.4-1.7,8.9-2.1,13.5c13.6,11.3,39.6,18.9,69.4,18.9c35.8,0,66.1-11,76.1-26.1L35.1,149.2z"
				/>
			<path class="st2" d="M228.2,106L65.6,120.3c-3.9,6.6-7.1,13.6-9.3,21.1l193.7,8.5C246.8,133.3,239.2,118.3,228.2,106z"/>
			<path class="st2" d="M60.1,130.9c13.9,5.2,33.7,8.4,55.7,8.4c42,0,76.1-11.8,76.1-26.4c0-1.3-0.3-2.5-0.8-3.7l-125.6,11
				C63.5,123.7,61.7,127.2,60.1,130.9z"/>
			<path class="st2" d="M213.9,98.4c-18.1-17.9-43.6-29-71.7-29c-34.8,0-65.3,16.9-83.1,42.6L213.9,98.4z"/>
			<path class="st2" d="M172.7,73.9c-9.6-2.9-19.9-4.5-30.5-4.5c-28.1,0-53.5,11.1-71.6,28.9c9.3,2.2,19.5,3.4,30.2,3.4
				C134.1,101.7,162.4,90.1,172.7,73.9z"/>
			<path class="st2" d="M250,190l-193.7,8.5c2.6,8.9,6.6,17.3,11.7,25l162.9,7.1C240.4,218.9,247.1,205.1,250,190z"/>
			<path class="st2" d="M68,223.4l48.5,2.1c23.2-3.9,39.7-14,39.7-25.8c0-1.9-0.4-3.8-1.3-5.6l-98.7,4.3
				C58.9,207.4,62.9,215.8,68,223.4z"/>
			<path class="st2" d="M216.8,238.3l-155.1-6.8c16.4,21.3,42,35.9,71.3,38.4c2,0.2,3.8,1.4,4.8,3.2c0.9,1.8,0.9,4-0.1,5.7
				c-3.9,6.8-8,11.6-8,18.9c0,6.9,5.6,12.4,12.4,12.4c6.9,0,12.4-5.6,12.4-12.4c0-7.3-4.1-12.1-8-18.9c-1-1.8-1.1-3.9-0.1-5.7
				c0.9-1.8,2.7-3,4.8-3.2C177.4,267.7,200.5,255.9,216.8,238.3z"/>
			<path class="st2" d="M61.8,231.6c9.1,11.8,21,21.5,34.7,28.3c16.4,8,35.7,7.5,51.7-1.4c9.9-5.5,16.9-13.4,19.3-22.3L61.8,231.6z"
				/>
			<path class="st2" d="M142.2,305.2c-4.1,0-7.5-3.3-7.5-7.5c0-4.4,2.1-7.8,4.9-12.4c0.8-1.3,1.6-2.6,2.4-4c0.1-0.1,0.1-0.2,0.2-0.3
				c0.1,0.1,0.2,0.2,0.2,0.3C139.3,288.2,152.9,305.2,142.2,305.2z"/>
			<g>
				<path class="st2" d="M142.2,305.2c-3.5,1-7.3-1.5-8.5-4.8c-1.1-3.4-0.1-7.3,1.7-10.1c1.2-1.9,2.6-3.5,4.2-5
					c-1.1,4-3.2,7.6-3.4,11.6C135.8,300.8,138.3,304.1,142.2,305.2L142.2,305.2z"/>
			</g>
			<g>
				<path class="st2" d="M84.9,92.6c18.9-18.2,48.6-24.8,73.5-17C131.9,75.2,108.5,80.2,84.9,92.6L84.9,92.6z"/>
			</g>
			<path class="st2" d="M137.9,59c-3.2-5.1-7.1-9.8-11.5-13.8c-5-4.5-10.6-8.2-16.6-10.8c5.7,3.2,10.9,7.4,15.3,12.1
				c4.3,4.7,7.8,10,10.5,15.7c-31.6,7.1-31.9-28.6-43.1-38.5C116,20.8,140.7,36.9,137.9,59z"/>
			<path class="st2" d="M170.9,22.6c-7,5.1-13.2,11.3-18.2,18.2c-4.9,6.8-8.7,14.2-11.3,22.1c42.4,4.5,37.3-42.2,50.5-56.9
				c-31.2-0.2-61.1,24.6-54.1,53c3.4-7.2,7.7-13.8,12.9-19.7C156.6,32.6,163.4,27,170.9,22.6z"/>
		</g>
		<g>
			<path class="st2" d="M348.8,184.3v45h42.1c2.5,0,4.3-0.4,5.5-1.1c0.6-0.3,1.1-0.7,1.5-1.1l2.2,1.8c0,3.4-1,6.5-3.1,9.3
				c-2.1,2.8-5.4,4.1-10.1,4.1h-64.3V125.3c0-2.2-0.8-3.8-2.4-4.7c-1.6-1-3.7-1.4-6.1-1.4l-0.2-3.1c0.4-0.4,1.1-1,2-1.5
				c0.7-0.3,1.8-0.6,3.2-1c1.4-0.4,3.3-0.6,5.6-0.6h66.3c2.5,0,4.3-0.3,5.5-0.9c0.6-0.4,1.1-0.9,1.5-1.3l2.2,1.8
				c0,3.5-1,6.6-3.1,9.3c-2.1,2.7-5.4,4.1-10.1,4.1h-38.2v45.4h24.8c2.5,0,4.3-0.4,5.5-1.1c0.6-0.4,1.1-0.9,1.5-1.3l2.2,1.8
				c0,3.6-1,6.7-3.1,9.5c-2.1,2.8-5.4,4.1-10.1,4.1H348.8z"/>
			<path class="st2" d="M484.8,224.4c0,2.3,0.5,4.8,1.4,7.4c0.9,2.6,2.7,4.3,5.2,5.2c1.2,0.3,2,0.4,2.6,0.4l0.2,2.9
				c-0.7,0.9-1.8,1.6-3.1,2.3s-2.7,1.2-4.1,1.6c-1.4,0.4-2.8,0.8-4.3,1c-1.5,0.2-2.7,0.3-3.7,0.3c-3.5,0-6.8-0.7-10-2.2
				c-3.1-1.5-5.7-3.4-7.8-5.9c-2.5,2.5-5.5,4.6-9.1,6.4c-3.6,1.8-7.8,2.6-12.6,2.6c-9.7,0-17-1.9-22.2-5.7
				c-5.1-3.8-7.7-9.3-7.7-16.5c0-6.3,1.8-11.3,5.3-15.1c3.5-3.8,7.7-6.8,12.6-9c4.9-2.2,10.1-3.7,15.6-4.5
				c5.5-0.8,10.2-1.3,14.2-1.4V186c0-1.8-0.3-3.5-0.9-5.3c-0.6-1.8-1.5-3.3-2.6-4.7c-1.2-1.4-2.6-2.6-4.4-3.5
				c-1.8-1-3.9-1.4-6.4-1.4c-3.7,0-6.8,1-9.3,2.9c-2.6,1.9-3.7,4.5-3.4,7.9c0.1,2.3-0.6,4.5-2.3,6.6c-1.7,2-4.1,3.1-7.4,3.1
				c-2.6,0-4.9-0.8-6.9-2.4c-2-1.6-3.1-3.6-3.4-5.9c-0.1-2.6,0.7-5.3,2.4-7.9s4.2-5,7.5-7.2c3.2-2.2,6.9-4,11.2-5.3
				c4.2-1.3,8.8-2,13.6-2c6.6,0,12.3,1,17.2,2.9c4.9,1.9,9,4.4,12.2,7.4c3.2,3,5.7,6.3,7.4,9.9c1.7,3.6,2.7,7.1,3,10.4
				c0.3,5.4,0.4,10.8,0.2,16.1C484.9,212.8,484.8,218.4,484.8,224.4z M446.2,234.3c2,0,4.1-0.4,6-1.2c2-0.8,3.8-1.8,5.6-3
				c-0.1-0.7-0.3-1.5-0.3-2.3c-0.1-0.8-0.1-1.6-0.1-2.5v-23.5c-3.4,0.9-6.5,2.1-9.4,3.6c-2.9,1.5-5.5,3.3-7.7,5.2
				c-2.2,1.9-3.9,3.9-5,6c-1.2,2.1-1.7,4.3-1.5,6.5c0.3,2.8,1.3,5.3,3,7.7C438.4,233.1,441.5,234.3,446.2,234.3z"/>
			<path class="st2" d="M492.3,165h15.8v-20h26.1v20h16v11.4h-16v54.9c0,2.5,0.9,4.2,2.9,5.3c1.9,1,4.1,1.5,6.6,1.5l0.4,3.1
				c-1.6,1-3.3,1.9-5,2.6c-1.6,0.7-3.5,1.4-5.6,1.9c-2.1,0.5-4.4,0.8-6.9,0.8c-7.3,0-12.2-1.6-14.7-4.9c-2.5-3.3-3.8-7.7-3.8-13.3
				v-51.8h-15.8V165z"/>
		</g>
		<g>
			<path class="st2" d="M654.4,191.8c-2.5,0-4.4,0.1-5.8,0.4c-1.4,0.3-2.5,0.6-3.4,0.9c-1,0.4-1.8,0.9-2.2,1.3l-2.2-1.8
				c0-3.5,1-6.6,3.1-9.3c2-2.7,5.4-4.1,10.1-4.3h30.3c2.5,0,4.3-0.4,5.5-1.1c0.6-0.4,1.1-0.9,1.5-1.3l2.2,1.8c0,3.5-1.1,6.6-3.2,9.3
				c-2.1,2.7-5.5,4.1-10.2,4.3v32.9h0.2c-2.2,2.2-5.2,4.4-9,6.7c-3.8,2.3-8,4.3-12.7,6c-4.7,1.8-9.6,3.2-14.8,4.4
				c-5.2,1.2-10.2,1.8-15,1.8c-10.1,0-19.3-1.4-27.5-4.3c-8.3-2.9-15.4-6.9-21.5-12.1c-6.1-5.2-10.9-11.4-14.6-18.5
				c-3.7-7.1-5.8-14.9-6.4-23.4c-0.7-10.1,0.4-19.7,3.3-28.8c2.9-9.1,7.5-17.1,13.6-24c6.1-6.9,13.9-12.3,23.3-16.4
				c9.4-4,20.1-6,32.3-6c6.7,0,13.2,0.8,19.4,2.5c6.2,1.7,11.7,4,16.5,6.9c4.8,2.9,8.6,6.4,11.4,10.4c2.9,4,4.3,8.3,4.3,12.8
				c0,2.2-0.4,4.5-1.1,6.8c-0.7,2.3-1.9,4.5-3.4,6.5c-1.5,2-3.5,3.6-6,4.8c-2.5,1.2-5.5,1.9-9,1.9c-5,0-8.9-1.6-11.6-4.8
				c-2.8-3.2-4.2-6.8-4.2-10.7c0-2.3,0.4-4.4,1.2-6.1c0.8-1.7,1.8-3.2,3-4.4c1.3-1.5,2.8-2.7,4.4-3.7c-1.8-2.2-4-4.1-6.6-5.9
				c-2.3-1.6-5.3-3-8.9-4.3c-3.6-1.2-7.9-1.9-13.1-1.9c-6.6,0-12.3,1.6-17.2,4.9c-4.9,3.3-9,7.5-12.3,12.5s-5.8,10.6-7.5,16.7
				c-1.7,6.1-2.5,11.9-2.5,17.4c0,6.7,1.2,13.4,3.6,20c2.4,6.6,5.8,12.5,10.2,17.8c4.4,5.3,9.7,9.5,15.8,12.7
				c6.1,3.2,13,4.8,20.6,4.8c2.8,0,5.6-0.2,8.3-0.5c2.8-0.4,5.4-0.9,7.9-1.6V191.8z"/>
			<path class="st2" d="M729.3,242.2h-25.7v-63.4c0-3.8-0.9-6.3-2.6-7.4c-1.8-1.1-3.7-1.6-5.7-1.6L695,167c1.6-1.2,3.3-2.2,5-3.1
				c1.6-0.7,3.4-1.4,5.3-2.1c1.9-0.7,3.9-1,5.9-1c4.2,0,8,1.1,11.2,3.2c3.2,2.1,5.3,6,6.4,11.5c4.7-4.2,8.9-7.4,12.7-9.3
				c3.8-2,7.8-3,11.8-3c3.8,0,6.8,0.8,9.1,2.5c2.3,1.7,3.5,4,3.8,6.9c0.3,2.9-0.4,5.7-2.2,8.2c-1.8,2.6-4.8,3.8-9.2,3.8
				c-2.8,0-5-0.4-6.6-1.3c-1.6-0.9-2.8-1.9-3.5-3.1c-1-1.3-1.7-2.9-2-4.6c-0.9,0.7-2,1.5-3.5,2.4c-1.2,0.9-2.6,1.9-4.4,3.2
				c-1.8,1.2-3.7,2.8-5.7,4.7V242.2z"/>
			<path class="st2" d="M848.4,224.4c0,2.3,0.5,4.8,1.4,7.4c0.9,2.6,2.7,4.3,5.2,5.2c1.2,0.3,2,0.4,2.6,0.4l0.2,2.9
				c-0.7,0.9-1.8,1.6-3.1,2.3s-2.7,1.2-4.1,1.6c-1.4,0.4-2.8,0.8-4.3,1c-1.5,0.2-2.7,0.3-3.7,0.3c-3.5,0-6.8-0.7-10-2.2
				c-3.1-1.5-5.7-3.4-7.8-5.9c-2.5,2.5-5.5,4.6-9.1,6.4c-3.6,1.8-7.8,2.6-12.6,2.6c-9.7,0-17-1.9-22.2-5.7
				c-5.1-3.8-7.7-9.3-7.7-16.5c0-6.3,1.8-11.3,5.3-15.1c3.5-3.8,7.7-6.8,12.6-9c4.9-2.2,10.1-3.7,15.6-4.5
				c5.5-0.8,10.2-1.3,14.2-1.4V186c0-1.8-0.3-3.5-0.9-5.3c-0.6-1.8-1.5-3.3-2.6-4.7c-1.2-1.4-2.6-2.6-4.4-3.5
				c-1.8-1-3.9-1.4-6.4-1.4c-3.7,0-6.8,1-9.3,2.9c-2.6,1.9-3.7,4.5-3.4,7.9c0.1,2.3-0.6,4.5-2.3,6.6c-1.7,2-4.1,3.1-7.4,3.1
				c-2.6,0-4.9-0.8-6.9-2.4c-2-1.6-3.1-3.6-3.4-5.9c-0.1-2.6,0.7-5.3,2.4-7.9c1.8-2.6,4.2-5,7.5-7.2c3.2-2.2,6.9-4,11.2-5.3
				c4.2-1.3,8.8-2,13.6-2c6.6,0,12.3,1,17.2,2.9c4.9,1.9,9,4.4,12.2,7.4c3.2,3,5.7,6.3,7.3,9.9c1.7,3.6,2.7,7.1,3,10.4
				c0.3,5.4,0.4,10.8,0.2,16.1C848.5,212.8,848.4,218.4,848.4,224.4z M809.8,234.3c2,0,4.1-0.4,6-1.2c2-0.8,3.8-1.8,5.6-3
				c-0.1-0.7-0.3-1.5-0.3-2.3c-0.1-0.8-0.1-1.6-0.1-2.5v-23.5c-3.4,0.9-6.5,2.1-9.4,3.6c-2.9,1.5-5.5,3.3-7.7,5.2
				c-2.2,1.9-3.9,3.9-5,6c-1.2,2.1-1.7,4.3-1.5,6.5c0.3,2.8,1.3,5.3,3,7.7C801.9,233.1,805.1,234.3,809.8,234.3z"/>
			<path class="st2" d="M869.5,242.2V177c0-3.9-0.8-6.5-2.3-7.6s-3.3-1.6-5.4-1.6V165c1.6-1.2,3.2-2.2,4.8-3.1
				c1.5-0.7,3.1-1.4,4.9-2.1c1.8-0.7,3.8-1,5.8-1c4.1,0,7.7,1.1,10.8,3.3c3.1,2.2,5,6.1,5.9,11.8c3.5-3.4,7.6-6.4,12.3-9.1
				c4.7-2.7,9.9-4.1,15.6-4.1c4.5,0,8.4,1,11.6,2.9c3.2,1.9,5.5,5.1,6.8,9.7c2.8-2.9,6.3-5.7,10.5-8.3c4.2-2.6,9.2-3.9,14.9-3.9
				c2.6,0,5.2,0.3,7.7,1c2.5,0.7,4.8,1.8,6.8,3.5c2,1.7,3.7,4,4.9,7c1.2,3,1.9,6.8,1.9,11.3v45.4c0,5.1,2.1,7.7,6.4,7.7v3.1
				c-1.6,1.3-3.2,2.4-4.8,3.3c-1.5,0.7-3.1,1.4-4.9,2.1c-1.8,0.7-3.8,1-5.8,1c-5.6,0-9.5-1.7-11.7-5c-2.3-3.4-3.4-7.4-3.4-12.1
				v-42.8c0-4.2-0.6-7.1-1.8-8.7c-1.2-1.5-3-2.3-5.5-2.3c-2.3,0-4.7,0.9-7.1,2.6c-2.4,1.8-4.6,3.7-6.7,5.7v58.4h-23.9v-55.7
				c0-3.4-0.5-6-1.4-7.9c-1-1.9-2.9-2.9-5.8-2.9c-2.5,0-5.2,0.9-8,2.7c-2.9,1.8-5.5,4-8,6.5v57.3H869.5z"/>
		</g>
	</g>
</g>
<g id="Layer_1">
	<g>
		<g>
			<path class="st3" d="M302.3,147.7c17.7-7.9,3.1-32.9-13.4-20c-12,9.3-23.2,34.4-28.2,48.8C275.7,161.9,285.5,155.2,302.3,147.7z"
				/>
			<path class="st4" d="M10.6,92.5c13.8,10.2,21.4,18.4,32.2,34.6C41.1,113,36,87.8,26.9,76.9C13.6,61-4.1,81.6,10.6,92.5z"/>
			<circle class="st5" cx="265.6" cy="106.5" r="10.9"/>
			<path class="st6" d="M232,170.4c0-4.1-0.3-8.1-0.8-12.1l-195.8-8.5c-1.6,6.6-2.4,13.6-2.4,20.7c0,7.1,0.8,14,2.4,20.7l195.8-8.5
				C231.7,178.5,232,174.5,232,170.4z"/>
			<path class="st7" d="M35.4,149.7c-1,4.4-1.7,8.9-2.1,13.5c13.6,11.3,39.6,18.9,69.4,18.9c35.8,0,66.1-11,76.1-26.1L35.4,149.7z"
				/>
			<path class="st5" d="M228.5,106.5L65.8,120.7c-3.9,6.6-7.1,13.6-9.3,21.1l193.7,8.5C247.1,133.8,239.4,118.8,228.5,106.5z"/>
			<path class="st8" d="M60.4,131.4c13.9,5.2,33.7,8.4,55.7,8.4c42,0,76.1-11.8,76.1-26.4c0-1.3-0.3-2.5-0.8-3.7l-125.6,11
				C63.8,124.2,62,127.7,60.4,131.4z"/>
			<path class="st3" d="M214.2,98.9c-18.1-17.9-43.6-29-71.7-29c-34.8,0-65.3,16.9-83.1,42.6L214.2,98.9z"/>
			<path class="st9" d="M173,74.4c-9.6-2.9-19.9-4.5-30.5-4.5c-28.1,0-53.5,11.1-71.6,28.9c9.3,2.2,19.5,3.4,30.2,3.4
				C134.4,102.1,162.7,90.5,173,74.4z"/>
			<path class="st10" d="M250.3,190.5l-193.7,8.5c2.6,8.9,6.6,17.3,11.7,25l162.9,7.1C240.7,219.4,247.4,205.5,250.3,190.5z"/>
			<path class="st11" d="M68.3,223.9l48.5,2.1c23.2-3.9,39.7-14,39.7-25.8c0-1.9-0.4-3.8-1.3-5.6l-98.7,4.3
				C59.2,207.9,63.2,216.3,68.3,223.9z"/>
			<path class="st12" d="M217.1,238.8L62.1,232c16.4,21.3,42,35.9,71.3,38.4c2,0.2,3.8,1.4,4.8,3.2c0.9,1.8,0.9,4-0.1,5.7
				c-3.9,6.8-8,11.6-8,18.9c0,6.9,5.6,12.4,12.4,12.4c6.9,0,12.4-5.6,12.4-12.4c0-7.3-4.1-12.1-8-18.9c-1-1.8-1.1-3.9-0.1-5.7
				c0.9-1.8,2.7-3,4.8-3.2C177.6,268.2,200.8,256.4,217.1,238.8z"/>
			<path class="st13" d="M62.1,232c9.1,11.8,21,21.5,34.7,28.3c16.4,8,35.7,7.5,51.7-1.4c9.9-5.5,16.9-13.4,19.3-22.3L62.1,232z"/>
			<path class="st13" d="M142.5,305.7c-4.1,0-7.5-3.3-7.5-7.5c0-4.4,2.1-7.8,4.9-12.4c0.8-1.3,1.6-2.6,2.4-4
				c0.1-0.1,0.1-0.2,0.2-0.3c0.1,0.1,0.2,0.2,0.2,0.3C139.6,288.6,153.1,305.7,142.5,305.7z"/>
			<g>
				<path class="st14" d="M142.5,305.7c-3.5,1-7.3-1.5-8.5-4.8c-1.1-3.4-0.1-7.3,1.7-10.1c1.2-1.9,2.6-3.5,4.2-5
					c-1.1,4-3.2,7.6-3.4,11.6C136.1,301.3,138.6,304.6,142.5,305.7L142.5,305.7z"/>
			</g>
			<g>
				<path class="st14" d="M85.2,93.1c18.9-18.2,48.6-24.8,73.5-17C132.2,75.6,108.8,80.7,85.2,93.1L85.2,93.1z"/>
			</g>
			<path class="st4" d="M138.2,59.5c-3.2-5.1-7.1-9.8-11.5-13.7c-5-4.5-10.6-8.2-16.6-10.8c5.7,3.2,10.9,7.4,15.3,12.1
				c4.3,4.7,7.8,10,10.5,15.7c-31.6,7.1-31.9-28.6-43.1-38.5C116.2,21.3,140.9,37.4,138.2,59.5z"/>
			<path class="st6" d="M171.1,23c-7,5.1-13.2,11.3-18.2,18.2c-4.9,6.8-8.7,14.2-11.3,22.1C184,67.8,179,21.1,192.2,6.4
				c-31.2-0.2-61.1,24.6-54.1,53c3.4-7.2,7.7-13.8,12.9-19.7C156.9,33.1,163.7,27.5,171.1,23z"/>
		</g>
		<g>
			<path class="st15" d="M349.1,184.8v45h42.1c2.5,0,4.3-0.4,5.5-1.1c0.6-0.3,1.1-0.7,1.5-1.1l2.2,1.8c0,3.4-1,6.5-3.1,9.3
				c-2.1,2.8-5.4,4.1-10.1,4.1H323V125.8c0-2.2-0.8-3.8-2.4-4.7c-1.6-1-3.7-1.4-6.1-1.4l-0.2-3.1c0.4-0.4,1.1-1,2-1.5
				c0.7-0.3,1.8-0.6,3.2-1c1.4-0.4,3.3-0.6,5.6-0.6h66.3c2.5,0,4.3-0.3,5.5-0.9c0.6-0.4,1.1-0.9,1.5-1.3l2.2,1.8
				c0,3.5-1,6.6-3.1,9.3c-2.1,2.7-5.4,4.1-10.1,4.1h-38.2v45.4h24.8c2.5,0,4.3-0.4,5.5-1.1c0.6-0.4,1.1-0.9,1.5-1.3l2.2,1.8
				c0,3.6-1,6.7-3.1,9.5c-2.1,2.8-5.4,4.1-10.1,4.1H349.1z"/>
			<path class="st15" d="M485.1,224.9c0,2.3,0.5,4.8,1.4,7.4c0.9,2.6,2.7,4.3,5.2,5.2c1.2,0.3,2,0.4,2.6,0.4l0.2,2.9
				c-0.7,0.9-1.8,1.6-3.1,2.3s-2.7,1.2-4.1,1.6c-1.4,0.4-2.8,0.8-4.3,1c-1.5,0.2-2.7,0.3-3.7,0.3c-3.5,0-6.8-0.7-10-2.2
				c-3.1-1.5-5.7-3.4-7.8-5.9c-2.5,2.5-5.5,4.6-9.1,6.4c-3.6,1.8-7.8,2.6-12.6,2.6c-9.7,0-17-1.9-22.2-5.7
				c-5.1-3.8-7.7-9.3-7.7-16.5c0-6.3,1.8-11.3,5.3-15.1c3.5-3.8,7.7-6.8,12.6-9c4.9-2.2,10.1-3.7,15.6-4.5
				c5.5-0.8,10.2-1.3,14.2-1.4v-8.1c0-1.8-0.3-3.5-0.9-5.3c-0.6-1.8-1.5-3.3-2.6-4.7c-1.2-1.4-2.6-2.6-4.4-3.5
				c-1.8-1-3.9-1.4-6.4-1.4c-3.7,0-6.8,1-9.3,2.9c-2.6,1.9-3.7,4.5-3.4,7.9c0.1,2.3-0.6,4.5-2.3,6.6c-1.7,2-4.1,3.1-7.4,3.1
				c-2.6,0-4.9-0.8-6.9-2.4c-2-1.6-3.1-3.6-3.4-5.9c-0.1-2.6,0.7-5.3,2.4-7.9s4.2-5,7.5-7.2c3.2-2.2,6.9-4,11.2-5.3
				c4.2-1.3,8.8-2,13.6-2c6.6,0,12.3,1,17.2,2.9c4.9,1.9,9,4.4,12.2,7.4c3.2,3,5.7,6.3,7.4,9.9c1.7,3.6,2.7,7.1,3,10.4
				c0.3,5.4,0.4,10.8,0.2,16.1C485.2,213.3,485.1,218.9,485.1,224.9z M446.5,234.8c2,0,4.1-0.4,6-1.2c2-0.8,3.8-1.8,5.6-3
				c-0.1-0.7-0.3-1.5-0.3-2.3c-0.1-0.8-0.1-1.6-0.1-2.5v-23.5c-3.4,0.9-6.5,2.1-9.4,3.6c-2.9,1.5-5.5,3.3-7.7,5.2
				c-2.2,1.9-3.9,3.9-5,6c-1.2,2.1-1.7,4.3-1.5,6.5c0.3,2.8,1.3,5.3,3,7.7C438.6,233.6,441.8,234.8,446.5,234.8z"/>
			<path class="st15" d="M492.6,165.5h15.8v-20h26.1v20h16v11.4h-16v54.9c0,2.5,0.9,4.2,2.9,5.3c1.9,1,4.1,1.5,6.6,1.5l0.4,3.1
				c-1.6,1-3.3,1.9-5,2.6c-1.6,0.7-3.5,1.4-5.6,1.9c-2.1,0.5-4.4,0.8-6.9,0.8c-7.3,0-12.2-1.6-14.7-4.9c-2.5-3.3-3.8-7.7-3.8-13.3
				v-51.8h-15.8V165.5z"/>
		</g>
		<g>
			<path class="st3" d="M654.7,192.2c-2.5,0-4.4,0.1-5.8,0.4c-1.4,0.3-2.5,0.6-3.4,0.9c-1,0.4-1.8,0.9-2.2,1.3l-2.2-1.8
				c0-3.5,1-6.6,3.1-9.3c2-2.7,5.4-4.1,10.1-4.3h30.3c2.5,0,4.3-0.4,5.5-1.1c0.6-0.4,1.1-0.9,1.5-1.3l2.2,1.8c0,3.5-1.1,6.6-3.2,9.3
				c-2.1,2.7-5.5,4.1-10.2,4.3v32.9h0.2c-2.2,2.2-5.2,4.4-9,6.7c-3.8,2.3-8,4.3-12.7,6c-4.7,1.8-9.6,3.2-14.8,4.4
				c-5.2,1.2-10.2,1.8-15,1.8c-10.1,0-19.3-1.4-27.5-4.3c-8.3-2.9-15.4-6.9-21.5-12.1c-6.1-5.2-10.9-11.4-14.6-18.5
				c-3.7-7.1-5.8-14.9-6.4-23.4c-0.7-10.1,0.4-19.7,3.3-28.8c2.9-9.1,7.5-17.1,13.6-24c6.1-6.9,13.9-12.3,23.3-16.4
				c9.4-4,20.1-6,32.3-6c6.7,0,13.2,0.8,19.4,2.5c6.2,1.7,11.7,4,16.5,6.9c4.8,2.9,8.6,6.4,11.4,10.4c2.9,4,4.3,8.3,4.3,12.8
				c0,2.2-0.4,4.5-1.1,6.8c-0.7,2.3-1.9,4.5-3.4,6.5c-1.5,2-3.5,3.6-6,4.8c-2.5,1.2-5.5,1.9-9,1.9c-5,0-8.9-1.6-11.6-4.8
				c-2.8-3.2-4.2-6.8-4.2-10.7c0-2.3,0.4-4.4,1.2-6.1c0.8-1.7,1.8-3.2,3-4.4c1.3-1.5,2.8-2.7,4.4-3.7c-1.8-2.2-4-4.1-6.6-5.9
				c-2.3-1.6-5.3-3-8.9-4.3c-3.6-1.2-7.9-1.9-13.1-1.9c-6.6,0-12.3,1.6-17.2,4.9c-4.9,3.3-9,7.5-12.3,12.5s-5.8,10.6-7.5,16.7
				c-1.7,6.1-2.5,11.9-2.5,17.4c0,6.7,1.2,13.4,3.6,20c2.4,6.6,5.8,12.5,10.2,17.8c4.4,5.3,9.7,9.5,15.8,12.7
				c6.1,3.2,13,4.8,20.6,4.8c2.8,0,5.6-0.2,8.3-0.5c2.8-0.4,5.4-0.9,7.9-1.6V192.2z"/>
			<path class="st3" d="M729.5,242.7h-25.7v-63.4c0-3.8-0.9-6.3-2.6-7.4c-1.8-1.1-3.7-1.6-5.7-1.6l-0.2-2.9c1.6-1.2,3.3-2.2,5-3.1
				c1.6-0.7,3.4-1.4,5.3-2.1c1.9-0.7,3.9-1,5.9-1c4.2,0,8,1.1,11.2,3.2c3.2,2.1,5.3,6,6.4,11.5c4.7-4.2,8.9-7.4,12.7-9.3
				c3.8-2,7.8-3,11.8-3c3.8,0,6.8,0.8,9.1,2.5c2.3,1.7,3.5,4,3.8,6.9c0.3,2.9-0.4,5.7-2.2,8.2c-1.8,2.6-4.8,3.8-9.2,3.8
				c-2.8,0-5-0.4-6.6-1.3c-1.6-0.9-2.8-1.9-3.5-3.1c-1-1.3-1.7-2.9-2-4.6c-0.9,0.7-2,1.5-3.5,2.4c-1.2,0.9-2.6,1.9-4.4,3.2
				c-1.8,1.2-3.7,2.8-5.7,4.7V242.7z"/>
			<path class="st3" d="M848.7,224.9c0,2.3,0.5,4.8,1.4,7.4c0.9,2.6,2.7,4.3,5.2,5.2c1.2,0.3,2,0.4,2.6,0.4l0.2,2.9
				c-0.7,0.9-1.8,1.6-3.1,2.3s-2.7,1.2-4.1,1.6c-1.4,0.4-2.8,0.8-4.3,1c-1.5,0.2-2.7,0.3-3.7,0.3c-3.5,0-6.8-0.7-10-2.2
				c-3.1-1.5-5.7-3.4-7.8-5.9c-2.5,2.5-5.5,4.6-9.1,6.4c-3.6,1.8-7.8,2.6-12.6,2.6c-9.7,0-17-1.9-22.2-5.7
				c-5.1-3.8-7.7-9.3-7.7-16.5c0-6.3,1.8-11.3,5.3-15.1c3.5-3.8,7.7-6.8,12.6-9c4.9-2.2,10.1-3.7,15.6-4.5
				c5.5-0.8,10.2-1.3,14.2-1.4v-8.1c0-1.8-0.3-3.5-0.9-5.3c-0.6-1.8-1.5-3.3-2.6-4.7c-1.2-1.4-2.6-2.6-4.4-3.5
				c-1.8-1-3.9-1.4-6.4-1.4c-3.7,0-6.8,1-9.3,2.9c-2.6,1.9-3.7,4.5-3.4,7.9c0.1,2.3-0.6,4.5-2.3,6.6c-1.7,2-4.1,3.1-7.4,3.1
				c-2.6,0-4.9-0.8-6.9-2.4c-2-1.6-3.1-3.6-3.4-5.9c-0.1-2.6,0.7-5.3,2.4-7.9c1.8-2.6,4.2-5,7.5-7.2c3.2-2.2,6.9-4,11.2-5.3
				c4.2-1.3,8.8-2,13.6-2c6.6,0,12.3,1,17.2,2.9c4.9,1.9,9,4.4,12.2,7.4c3.2,3,5.7,6.3,7.3,9.9c1.7,3.6,2.7,7.1,3,10.4
				c0.3,5.4,0.4,10.8,0.2,16.1C848.7,213.3,848.7,218.9,848.7,224.9z M810.1,234.8c2,0,4.1-0.4,6-1.2c2-0.8,3.8-1.8,5.6-3
				c-0.1-0.7-0.3-1.5-0.3-2.3c-0.1-0.8-0.1-1.6-0.1-2.5v-23.5c-3.4,0.9-6.5,2.1-9.4,3.6c-2.9,1.5-5.5,3.3-7.7,5.2
				c-2.2,1.9-3.9,3.9-5,6c-1.2,2.1-1.7,4.3-1.5,6.5c0.3,2.8,1.3,5.3,3,7.7C802.2,233.6,805.4,234.8,810.1,234.8z"/>
			<path class="st3" d="M869.7,242.7v-65.2c0-3.9-0.8-6.5-2.3-7.6s-3.3-1.6-5.4-1.6v-2.9c1.6-1.2,3.2-2.2,4.8-3.1
				c1.5-0.7,3.1-1.4,4.9-2.1c1.8-0.7,3.8-1,5.8-1c4.1,0,7.7,1.1,10.8,3.3c3.1,2.2,5,6.1,5.9,11.8c3.5-3.4,7.6-6.4,12.3-9.1
				c4.7-2.7,9.9-4.1,15.6-4.1c4.5,0,8.4,1,11.6,2.9c3.2,1.9,5.5,5.1,6.8,9.7c2.8-2.9,6.3-5.7,10.5-8.3c4.2-2.6,9.2-3.9,14.9-3.9
				c2.6,0,5.2,0.3,7.7,1c2.5,0.7,4.8,1.8,6.8,3.5c2,1.7,3.7,4,4.9,7c1.2,3,1.9,6.8,1.9,11.3v45.4c0,5.1,2.1,7.7,6.4,7.7v3.1
				c-1.6,1.3-3.2,2.4-4.8,3.3c-1.5,0.7-3.1,1.4-4.9,2.1c-1.8,0.7-3.8,1-5.8,1c-5.6,0-9.5-1.7-11.7-5c-2.3-3.4-3.4-7.4-3.4-12.1V187
				c0-4.2-0.6-7.1-1.8-8.7c-1.2-1.5-3-2.3-5.5-2.3c-2.3,0-4.7,0.9-7.1,2.6c-2.4,1.8-4.6,3.7-6.7,5.7v58.4H918V187
				c0-3.4-0.5-6-1.4-7.9c-1-1.9-2.9-2.9-5.8-2.9c-2.5,0-5.2,0.9-8,2.7c-2.9,1.8-5.5,4-8,6.5v57.3H869.7z"/>
		</g>
	</g>
</g>
</svg>
