<?xml version="1.0" encoding="utf-8"?>
<!-- Generator: Adobe Illustrator 27.0.0, SVG Export Plug-In . SVG Version: 6.00 Build 0)  -->
<svg version="1.1" xmlns="http://www.w3.org/2000/svg" xmlns:xlink="http://www.w3.org/1999/xlink" x="0px" y="0px"
	 viewBox="0 0 1000 1000" style="enable-background:new 0 0 1000 1000;" xml:space="preserve">
<style type="text/css">
	.st0{display:none;}
	.st1{display:inline;}
	.st2{fill:#FFFFFF;stroke:#FFFFFF;stroke-width:4.7311;stroke-miterlimit:10;}
	.st3{fill:#FFFFFF;stroke:#FFFFFF;stroke-width:7;stroke-miterlimit:10;}
	.st4{fill:#FFFFFF;stroke:#FFFFFF;stroke-width:5;stroke-miterlimit:10;}
	.st5{fill:#239547;}
	.st6{fill:#FBAA19;}
	.st7{fill:#FAA819;}
	.st8{fill:#E31E25;}
	.st9{fill:#91BF3E;}
	.st10{fill:#AACA3A;}
	.st11{fill:#E5525F;}
	.st12{fill:#FDC24B;}
	.st13{fill:#6D2A5C;}
	.st14{fill:#80326E;}
	.st15{fill:#FDD400;}
	.st16{fill:#FFE14C;}
	.st17{fill:#F9FAFB;}
</style>
<g id="Layer_2" class="st0">
	<rect x="-0.7" y="-2.9" class="st1" width="1000.4" height="1004.8"/>
</g>
<g>
	<g>
		<g>
			<path class="st2" d="M78.2,838v61.8h57.9c3.4,0,5.9-0.5,7.5-1.5c0.8-0.4,1.5-0.9,2.1-1.5l3,2.4c0,4.7-1.4,8.9-4.2,12.7
				c-2.8,3.8-7.4,5.7-13.9,5.7H42.3V756.9c0-3-1.1-5.2-3.3-6.5c-2.2-1.3-5-2-8.4-2l-0.3-4.2c0.6-0.6,1.5-1.3,2.7-2.1
				c1-0.4,2.5-0.9,4.4-1.4c1.9-0.5,4.5-0.8,7.7-0.8h91c3.4,0,5.9-0.4,7.5-1.2c0.8-0.6,1.5-1.2,2.1-1.8l3,2.4c0,4.8-1.4,9.1-4.2,12.8
				c-2.8,3.7-7.4,5.6-13.9,5.6H78.2v62.4h34.1c3.4,0,5.9-0.5,7.5-1.5c0.8-0.6,1.5-1.2,2.1-1.8l3,2.4c0,4.9-1.4,9.2-4.2,13
				c-2.8,3.8-7.4,5.7-13.9,5.7H78.2z"/>
			<path class="st2" d="M265.1,893.1c0,3.2,0.6,6.6,2,10.1c1.3,3.5,3.7,5.9,7.1,7.1c1.6,0.4,2.8,0.6,3.6,0.6l0.3,3.9
				c-1,1.2-2.4,2.3-4.2,3.2c-1.8,0.9-3.7,1.7-5.6,2.3c-1.9,0.6-3.9,1.1-5.9,1.4c-2,0.3-3.7,0.5-5.1,0.5c-4.8,0-9.4-1-13.7-3
				c-4.3-2-7.9-4.7-10.7-8.1c-3.4,3.4-7.6,6.3-12.5,8.7c-4.9,2.4-10.7,3.6-17.3,3.6c-13.3,0-23.4-2.6-30.4-7.8
				c-7-5.2-10.5-12.8-10.5-22.6c0-8.6,2.4-15.6,7.2-20.8c4.8-5.2,10.6-9.3,17.3-12.4c6.7-3,13.9-5.1,21.4-6.2c7.5-1.1,14-1.8,19.4-2
				v-11.2c0-2.4-0.4-4.8-1.2-7.2c-0.8-2.4-2-4.6-3.6-6.5c-1.6-1.9-3.6-3.5-6-4.8c-2.4-1.3-5.3-2-8.7-2c-5,0-9.3,1.3-12.8,3.9
				c-3.5,2.6-5.1,6.2-4.7,10.9c0.2,3.2-0.9,6.2-3.2,9c-2.3,2.8-5.7,4.2-10.1,4.2c-3.6,0-6.8-1.1-9.5-3.3c-2.7-2.2-4.3-4.9-4.7-8.1
				c-0.2-3.6,0.9-7.2,3.3-10.9c2.4-3.6,5.8-6.9,10.2-9.9c4.4-3,9.5-5.4,15.4-7.2c5.8-1.8,12.1-2.7,18.7-2.7c9,0,16.9,1.3,23.7,3.9
				c6.7,2.6,12.3,6,16.7,10.1c4.4,4.1,7.8,8.6,10.1,13.6c2.3,4.9,3.7,9.7,4.1,14.3c0.4,7.4,0.5,14.8,0.3,22.2
				C265.2,877.1,265.1,884.9,265.1,893.1z M212,906.7c2.8,0,5.6-0.6,8.3-1.7c2.7-1.1,5.3-2.5,7.7-4.1c-0.2-1-0.4-2.1-0.5-3.2
				c-0.1-1.1-0.2-2.3-0.2-3.5v-32.3c-4.6,1.2-8.9,2.9-13,5c-4,2.1-7.5,4.5-10.5,7.1c-3,2.6-5.3,5.4-6.9,8.3
				c-1.6,2.9-2.3,5.9-2.1,8.9c0.4,3.8,1.8,7.3,4.1,10.5C201.2,905.1,205.6,906.7,212,906.7z"/>
			<path class="st2" d="M275.3,811.4H297V784h35.9v27.4h22v15.7h-22v75.4c0,3.4,1.3,5.8,3.9,7.2c2.6,1.4,5.6,2.1,9,2.1l0.6,4.2
				c-2.2,1.4-4.5,2.6-6.9,3.6c-2.2,1-4.8,1.9-7.7,2.6c-2.9,0.7-6,1.1-9.4,1.1c-10,0-16.7-2.3-20.2-6.8c-3.5-4.5-5.2-10.6-5.2-18.2
				v-71.1h-21.7V811.4z"/>
		</g>
		<g>
			<path class="st2" d="M498,848.2c-3.4,0-6.1,0.2-8,0.6c-1.9,0.4-3.5,0.8-4.7,1.2c-1.4,0.6-2.4,1.2-3,1.8l-3-2.4
				c0-4.8,1.4-9.1,4.2-12.8c2.8-3.7,7.4-5.7,13.9-5.9H539c3.4,0,5.9-0.5,7.5-1.5c0.8-0.6,1.5-1.2,2.1-1.8l3,2.4
				c0,4.8-1.5,9.1-4.4,12.8c-2.9,3.7-7.6,5.7-14,5.9v45.2h0.3c-3,3-7.1,6.1-12.4,9.2c-5.2,3.1-11.1,5.9-17.5,8.3
				c-6.4,2.4-13.2,4.4-20.3,6c-7.1,1.6-14,2.4-20.6,2.4c-13.9,0-26.5-2-37.8-5.9c-11.4-3.9-21.2-9.5-29.5-16.6
				c-8.3-7.1-15-15.6-20-25.4c-5-9.8-7.9-20.5-8.7-32.2c-1-13.9,0.5-27.1,4.5-39.5c4-12.5,10.2-23.4,18.7-32.9
				c8.4-9.5,19.1-17,31.9-22.5c12.9-5.5,27.6-8.3,44.3-8.3c9.2,0,18.1,1.2,26.7,3.5c8.5,2.3,16.1,5.5,22.6,9.5
				c6.5,4,11.8,8.8,15.7,14.3c3.9,5.5,5.9,11.4,5.9,17.6c0,3-0.5,6.1-1.5,9.3c-1,3.2-2.6,6.2-4.7,8.9c-2.1,2.7-4.9,4.9-8.3,6.6
				c-3.4,1.7-7.5,2.6-12.4,2.6c-6.8,0-12.2-2.2-16-6.6c-3.8-4.4-5.7-9.3-5.7-14.7c0-3.2,0.6-6,1.7-8.4c1.1-2.4,2.5-4.4,4.1-6
				c1.8-2,3.8-3.7,6-5.1c-2.4-3-5.4-5.7-9-8.1c-3.2-2.2-7.3-4.1-12.2-5.8c-4.9-1.7-10.9-2.5-17.9-2.5c-9,0-16.9,2.3-23.7,6.8
				c-6.7,4.5-12.4,10.2-16.9,17.2c-4.5,6.9-7.9,14.6-10.2,22.9c-2.3,8.3-3.5,16.3-3.5,24c0,9.2,1.7,18.4,5,27.4
				c3.3,9,8,17.2,14,24.4c6,7.2,13.3,13.1,21.7,17.5c8.4,4.4,17.9,6.6,28.3,6.6c3.8,0,7.6-0.2,11.5-0.8c3.8-0.5,7.4-1.3,10.9-2.3
				V848.2z"/>
			<path class="st2" d="M600.8,917.5h-35.3v-87.1c0-5.2-1.2-8.6-3.6-10.1c-2.4-1.5-5-2.3-7.8-2.3l-0.3-3.9c2.2-1.6,4.5-3,6.9-4.2
				c2.2-1,4.6-2,7.2-2.9c2.6-0.9,5.3-1.4,8.1-1.4c5.8,0,10.9,1.5,15.4,4.4c4.4,2.9,7.3,8.2,8.7,15.8c6.4-5.8,12.3-10.1,17.5-12.8
				c5.2-2.7,10.6-4.1,16.3-4.1c5.2,0,9.4,1.2,12.5,3.5c3.1,2.3,4.9,5.5,5.3,9.5c0.4,4-0.6,7.8-3,11.3c-2.4,3.5-6.6,5.3-12.7,5.3
				c-3.8,0-6.8-0.6-9-1.8c-2.2-1.2-3.8-2.6-4.8-4.2c-1.4-1.8-2.3-3.9-2.7-6.3c-1.2,1-2.8,2.1-4.8,3.3c-1.6,1.2-3.6,2.7-6,4.4
				c-2.4,1.7-5,3.9-7.8,6.5V917.5z"/>
			<path class="st2" d="M764.5,893.1c0,3.2,0.7,6.6,2,10.1c1.3,3.5,3.7,5.9,7.1,7.1c1.6,0.4,2.8,0.6,3.6,0.6l0.3,3.9
				c-1,1.2-2.4,2.3-4.2,3.2c-1.8,0.9-3.7,1.7-5.6,2.3c-1.9,0.6-3.9,1.1-5.9,1.4c-2,0.3-3.7,0.5-5.1,0.5c-4.8,0-9.4-1-13.7-3
				c-4.3-2-7.9-4.7-10.7-8.1c-3.4,3.4-7.6,6.3-12.5,8.7c-4.9,2.4-10.7,3.6-17.3,3.6c-13.3,0-23.4-2.6-30.4-7.8
				c-7-5.2-10.5-12.8-10.5-22.6c0-8.6,2.4-15.6,7.2-20.8c4.8-5.2,10.6-9.3,17.3-12.4c6.7-3,13.9-5.1,21.4-6.2c7.5-1.1,14-1.8,19.4-2
				v-11.2c0-2.4-0.4-4.8-1.2-7.2c-0.8-2.4-2-4.6-3.6-6.5c-1.6-1.9-3.6-3.5-6-4.8c-2.4-1.3-5.3-2-8.7-2c-5,0-9.3,1.3-12.8,3.9
				c-3.5,2.6-5.1,6.2-4.7,10.9c0.2,3.2-0.9,6.2-3.2,9c-2.3,2.8-5.7,4.2-10.1,4.2c-3.6,0-6.8-1.1-9.5-3.3c-2.7-2.2-4.3-4.9-4.7-8.1
				c-0.2-3.6,0.9-7.2,3.3-10.9c2.4-3.6,5.8-6.9,10.2-9.9c4.4-3,9.5-5.4,15.4-7.2c5.8-1.8,12.1-2.7,18.7-2.7c9,0,16.9,1.3,23.7,3.9
				c6.7,2.6,12.3,6,16.7,10.1c4.4,4.1,7.8,8.6,10.1,13.6c2.3,4.9,3.7,9.7,4.1,14.3c0.4,7.4,0.5,14.8,0.3,22.2
				C764.6,877.1,764.5,884.9,764.5,893.1z M711.4,906.7c2.8,0,5.6-0.6,8.3-1.7c2.7-1.1,5.3-2.5,7.7-4.1c-0.2-1-0.4-2.1-0.5-3.2
				c-0.1-1.1-0.2-2.3-0.2-3.5v-32.3c-4.6,1.2-8.9,2.9-13,5c-4,2.1-7.5,4.5-10.5,7.1c-3,2.6-5.3,5.4-6.9,8.3
				c-1.6,2.9-2.3,5.9-2.1,8.9c0.4,3.8,1.8,7.3,4.1,10.5C700.6,905.1,705,906.7,711.4,906.7z"/>
			<path class="st2" d="M793.4,917.5V828c0-5.4-1.1-8.9-3.2-10.4c-2.1-1.5-4.6-2.3-7.4-2.3v-3.9c2.2-1.6,4.4-3,6.6-4.2
				c2-1,4.3-2,6.8-2.9c2.5-0.9,5.2-1.4,8-1.4c5.6,0,10.5,1.5,14.8,4.5s6.9,8.4,8.1,16.3c4.8-4.6,10.4-8.8,16.9-12.5
				c6.4-3.7,13.6-5.6,21.4-5.6c6.2,0,11.6,1.3,16,3.9c4.4,2.6,7.5,7,9.3,13.3c3.8-4,8.6-7.8,14.5-11.5c5.8-3.6,12.7-5.4,20.5-5.4
				c3.6,0,7.1,0.5,10.5,1.4c3.4,0.9,6.5,2.5,9.3,4.8c2.8,2.3,5.1,5.5,6.8,9.6c1.7,4.1,2.6,9.3,2.6,15.5v62.4c0,7,2.9,10.5,8.7,10.5
				v4.2c-2.2,1.8-4.4,3.3-6.6,4.5c-2,1-4.3,2-6.8,2.9c-2.5,0.9-5.2,1.4-8,1.4c-7.6,0-13-2.3-16.1-6.9c-3.1-4.6-4.7-10.1-4.7-16.6
				V841c0-5.8-0.8-9.8-2.4-11.9c-1.6-2.1-4.1-3.2-7.5-3.2c-3.2,0-6.5,1.2-9.8,3.6c-3.3,2.4-6.4,5-9.2,7.8v80.2h-32.9V841
				c0-4.6-0.7-8.2-2-10.9c-1.3-2.6-4-3.9-8-3.9c-3.4,0-7.1,1.3-11,3.8c-3.9,2.5-7.6,5.5-11,8.9v78.7H793.4z"/>
		</g>
	</g>
	<g>
		<g>
			<path class="st3" d="M794,387.7c35.8-15.9,6.3-66.3-27.1-40.5c-24.3,18.8-46.8,69.4-57,98.6C740.2,416.5,760.1,402.8,794,387.7z"
				/>
			<path class="st3" d="M204.9,276.3c27.9,20.6,43.3,37.1,65,69.9c-3.5-28.6-13.7-79.3-32.1-101.4
				C210.9,212.6,175.1,254.3,204.9,276.3z"/>
			<circle class="st3" cx="719.9" cy="304.5" r="22.1"/>
			<path class="st3" d="M652,433.5c0-8.3-0.6-16.4-1.6-24.4L255,391.8c-3.2,13.4-4.8,27.4-4.8,41.7s1.7,28.3,4.8,41.7l395.4-17.3
				C651.5,449.9,652,441.8,652,433.5z"/>
			<path class="st3" d="M255,391.8c-2.1,8.9-3.5,18-4.2,27.2c27.5,22.7,79.9,38.1,140.1,38.1c72.3,0,133.5-22.2,153.6-52.7
				L255,391.8z"/>
			<path class="st3" d="M645,304.5l-328.5,28.7c-7.9,13.3-14.3,27.5-18.7,42.5l391.1,17.1C682.5,359.6,667,329.4,645,304.5z"/>
			<path class="st3" d="M305.4,354.8c28.1,10.5,68.1,17,112.5,17c84.9,0,153.7-23.8,153.7-53.3c0-2.5-0.5-5-1.5-7.5l-253.6,22.2
				C312.3,340.2,308.6,347.4,305.4,354.8z"/>
			<path class="st3" d="M616.1,289.2c-36.6-36.1-88-58.6-144.9-58.6c-70.2,0-132,34.2-167.9,86L616.1,289.2z"/>
			<path class="st3" d="M532.9,239.7c-19.4-5.9-40.2-9.2-61.7-9.2c-56.8,0-108.1,22.4-144.6,58.4c18.7,4.4,39.3,6.8,61,6.8
				C454.9,295.7,512.1,272.3,532.9,239.7z"/>
			<path class="st3" d="M688.9,474.1l-391.1,17.1c5.3,18,13.4,35,23.7,50.4l329,14.4C669.6,532.4,683.1,504.5,688.9,474.1z"/>
			<path class="st3" d="M321.5,541.6l98,4.3c46.8-7.9,80.2-28.2,80.2-52.1c0-3.9-0.9-7.7-2.6-11.3l-199.3,8.7
				C303.1,509.2,311.2,526.2,321.5,541.6z"/>
			<path class="st3" d="M622,571.7L308.8,558c33.1,43.1,84.8,72.5,143.9,77.6c4.1,0.4,7.7,2.8,9.6,6.4c1.9,3.6,1.8,8-0.2,11.6
				c-7.9,13.7-16.1,23.5-16.1,38.1c0,13.9,11.2,25.1,25.1,25.1c13.9,0,25.1-11.2,25.1-25.1c0-14.7-8.2-24.4-16.1-38.1
				c-2-3.6-2.1-7.9-0.2-11.6c1.9-3.6,5.5-6.1,9.6-6.4C542.2,631.1,589,607.3,622,571.7z"/>
			<path class="st3" d="M308.8,558c18.3,23.8,42.3,43.5,70.1,57.1c33.1,16.2,72.2,15.2,104.3-2.7c20-11.2,34.2-27,39-45.1L308.8,558
				z"/>
			<path class="st3" d="M471.2,706.8c-8.3,0-15.1-6.8-15.1-15.1c0-8.9,4.2-15.7,9.9-25.1c1.6-2.6,3.2-5.2,4.8-8.1
				c0.1-0.2,0.2-0.4,0.3-0.6c0.1,0.2,0.4,0.4,0.3,0.6C465.4,672.3,492.8,706.8,471.2,706.8z"/>
			<g>
				<path class="st3" d="M471.2,706.8c-7.1,2.1-14.8-2.9-17.1-9.8c-2.3-6.8-0.1-14.7,3.5-20.4c2.4-3.8,5.2-7,8.5-10
					c-2.2,8-6.4,15.3-6.9,23.4C458.4,697.9,463.3,704.5,471.2,706.8L471.2,706.8z"/>
			</g>
			<g>
				<path class="st3" d="M355.6,277.5c38.2-36.8,98.1-50.1,148.5-34.3C450.4,242.2,403.2,252.5,355.6,277.5L355.6,277.5z"/>
			</g>
			<g>
				<path class="st3" d="M462.5,209.6c-6.4-10.3-14.3-19.7-23.2-27.8c-10-9.1-21.4-16.5-33.6-21.9c11.6,6.5,22.1,14.9,30.9,24.5
					c8.7,9.4,15.8,20.2,21.1,31.6c-63.7,14.4-64.4-57.7-87.1-77.7C418.2,132.5,468.1,165,462.5,209.6z"/>
				<path class="st3" d="M529.1,136c-14.2,10.3-26.6,22.8-36.7,36.8c-9.9,13.7-17.6,28.8-22.8,44.6c85.5,9.1,75.4-85.3,102.1-114.9
					c-63-0.4-123.3,49.7-109.2,107.1c6.8-14.5,15.6-27.9,26.1-39.8C500.3,156.3,514,144.9,529.1,136z"/>
			</g>
		</g>
		<g>
			<g>
				<path class="st4" d="M79.3,840.7v61.8h57.9c3.4,0,5.9-0.5,7.5-1.5c0.8-0.4,1.5-0.9,2.1-1.5l3,2.4c0,4.7-1.4,8.9-4.2,12.7
					c-2.8,3.8-7.4,5.7-13.9,5.7H43.4V759.6c0-3-1.1-5.2-3.3-6.5c-2.2-1.3-5-2-8.4-2l-0.3-4.2c0.6-0.6,1.5-1.3,2.7-2.1
					c1-0.4,2.5-0.9,4.4-1.4c1.9-0.5,4.5-0.8,7.7-0.8h91c3.4,0,5.9-0.4,7.5-1.2c0.8-0.6,1.5-1.2,2.1-1.8l3,2.4
					c0,4.8-1.4,9.1-4.2,12.8c-2.8,3.7-7.4,5.6-13.9,5.6H79.3v62.4h34.1c3.4,0,5.9-0.5,7.5-1.5c0.8-0.6,1.5-1.2,2.1-1.8l3,2.4
					c0,4.9-1.4,9.2-4.2,13c-2.8,3.8-7.4,5.7-13.9,5.7H79.3z"/>
				<path class="st4" d="M266.1,895.8c0,3.2,0.6,6.6,2,10.1c1.3,3.5,3.7,5.9,7.1,7.1c1.6,0.4,2.8,0.6,3.6,0.6l0.3,3.9
					c-1,1.2-2.4,2.3-4.2,3.2c-1.8,0.9-3.7,1.7-5.6,2.3c-1.9,0.6-3.9,1.1-5.9,1.4c-2,0.3-3.7,0.5-5.1,0.5c-4.8,0-9.4-1-13.7-3
					c-4.3-2-7.9-4.7-10.7-8.1c-3.4,3.4-7.6,6.3-12.5,8.7c-4.9,2.4-10.7,3.6-17.3,3.6c-13.3,0-23.4-2.6-30.4-7.8
					c-7-5.2-10.5-12.8-10.5-22.6c0-8.6,2.4-15.6,7.2-20.8c4.8-5.2,10.6-9.3,17.3-12.4c6.7-3,13.9-5.1,21.4-6.2
					c7.5-1.1,14-1.8,19.4-2v-11.2c0-2.4-0.4-4.8-1.2-7.2c-0.8-2.4-2-4.6-3.6-6.5c-1.6-1.9-3.6-3.5-6-4.8c-2.4-1.3-5.3-2-8.7-2
					c-5,0-9.3,1.3-12.8,3.9c-3.5,2.6-5.1,6.2-4.7,10.9c0.2,3.2-0.9,6.2-3.2,9c-2.3,2.8-5.7,4.2-10.1,4.2c-3.6,0-6.8-1.1-9.5-3.3
					c-2.7-2.2-4.3-4.9-4.7-8.1c-0.2-3.6,0.9-7.2,3.3-10.9c2.4-3.6,5.8-6.9,10.2-9.9c4.4-3,9.5-5.4,15.4-7.2
					c5.8-1.8,12.1-2.7,18.7-2.7c9,0,16.9,1.3,23.7,3.9c6.7,2.6,12.3,6,16.7,10.1c4.4,4.1,7.8,8.6,10.1,13.6
					c2.3,4.9,3.7,9.7,4.1,14.3c0.4,7.4,0.5,14.8,0.3,22.2C266.2,879.8,266.1,887.6,266.1,895.8z M213.1,909.4c2.8,0,5.6-0.6,8.3-1.7
					c2.7-1.1,5.3-2.5,7.7-4.1c-0.2-1-0.4-2.1-0.5-3.2c-0.1-1.1-0.2-2.3-0.2-3.5v-32.3c-4.6,1.2-8.9,2.9-13,5
					c-4,2.1-7.5,4.5-10.5,7.1c-3,2.6-5.3,5.4-6.9,8.3c-1.6,2.9-2.3,5.9-2.1,8.9c0.4,3.8,1.8,7.3,4.1,10.5
					C202.3,907.8,206.6,909.4,213.1,909.4z"/>
				<path class="st4" d="M276.4,814.1h21.7v-27.4h35.9v27.4h22v15.7h-22v75.4c0,3.4,1.3,5.8,3.9,7.2c2.6,1.4,5.6,2.1,9,2.1l0.6,4.2
					c-2.2,1.4-4.5,2.6-6.9,3.6c-2.2,1-4.8,1.9-7.7,2.6c-2.9,0.7-6,1.1-9.4,1.1c-10,0-16.7-2.3-20.2-6.8c-3.5-4.5-5.2-10.6-5.2-18.2
					v-71.1h-21.7V814.1z"/>
			</g>
			<g>
				<path class="st4" d="M499.1,850.9c-3.4,0-6.1,0.2-8,0.6c-1.9,0.4-3.5,0.8-4.7,1.2c-1.4,0.6-2.4,1.2-3,1.8l-3-2.4
					c0-4.8,1.4-9.1,4.2-12.8c2.8-3.7,7.4-5.7,13.9-5.9h41.6c3.4,0,5.9-0.5,7.5-1.5c0.8-0.6,1.5-1.2,2.1-1.8l3,2.4
					c0,4.8-1.5,9.1-4.4,12.8c-2.9,3.7-7.6,5.7-14,5.9v45.2h0.3c-3,3-7.1,6.1-12.4,9.2c-5.2,3.1-11.1,5.9-17.5,8.3
					c-6.4,2.4-13.2,4.4-20.3,6c-7.1,1.6-14,2.4-20.6,2.4c-13.9,0-26.5-2-37.8-5.9c-11.4-3.9-21.2-9.5-29.5-16.6
					c-8.3-7.1-15-15.6-20-25.4c-5-9.8-7.9-20.5-8.7-32.2c-1-13.9,0.5-27.1,4.5-39.5c4-12.5,10.2-23.4,18.7-32.9
					c8.4-9.5,19.1-17,31.9-22.5c12.9-5.5,27.6-8.3,44.3-8.3c9.2,0,18.1,1.2,26.7,3.5c8.5,2.3,16.1,5.5,22.6,9.5
					c6.5,4,11.8,8.8,15.7,14.3c3.9,5.5,5.9,11.4,5.9,17.6c0,3-0.5,6.1-1.5,9.3c-1,3.2-2.6,6.2-4.7,8.9c-2.1,2.7-4.9,4.9-8.3,6.6
					c-3.4,1.7-7.5,2.6-12.4,2.6c-6.8,0-12.2-2.2-16-6.6c-3.8-4.4-5.7-9.3-5.7-14.7c0-3.2,0.6-6,1.7-8.4c1.1-2.4,2.5-4.4,4.1-6
					c1.8-2,3.8-3.7,6-5.1c-2.4-3-5.4-5.7-9-8.1c-3.2-2.2-7.3-4.1-12.2-5.8c-4.9-1.7-10.9-2.5-17.9-2.5c-9,0-16.9,2.3-23.7,6.8
					c-6.7,4.5-12.4,10.2-16.9,17.2c-4.5,6.9-7.9,14.6-10.2,22.9c-2.3,8.3-3.5,16.3-3.5,24c0,9.2,1.7,18.4,5,27.4
					c3.3,9,8,17.2,14,24.4c6,7.2,13.3,13.1,21.7,17.5c8.4,4.4,17.9,6.6,28.3,6.6c3.8,0,7.6-0.2,11.5-0.8c3.8-0.5,7.4-1.3,10.9-2.3
					V850.9z"/>
				<path class="st4" d="M601.9,920.2h-35.3v-87.1c0-5.2-1.2-8.6-3.6-10.1c-2.4-1.5-5-2.3-7.8-2.3l-0.3-3.9c2.2-1.6,4.5-3,6.9-4.2
					c2.2-1,4.6-2,7.2-2.9c2.6-0.9,5.3-1.4,8.1-1.4c5.8,0,10.9,1.5,15.4,4.4c4.4,2.9,7.3,8.2,8.7,15.8c6.4-5.8,12.3-10.1,17.5-12.8
					c5.2-2.7,10.6-4.1,16.3-4.1c5.2,0,9.4,1.2,12.5,3.5c3.1,2.3,4.9,5.5,5.3,9.5c0.4,4-0.6,7.8-3,11.3c-2.4,3.5-6.6,5.3-12.7,5.3
					c-3.8,0-6.8-0.6-9-1.8c-2.2-1.2-3.8-2.6-4.8-4.2c-1.4-1.8-2.3-3.9-2.7-6.3c-1.2,1-2.8,2.1-4.8,3.3c-1.6,1.2-3.6,2.7-6,4.4
					c-2.4,1.7-5,3.9-7.8,6.5V920.2z"/>
				<path class="st4" d="M765.6,895.8c0,3.2,0.7,6.6,2,10.1c1.3,3.5,3.7,5.9,7.1,7.1c1.6,0.4,2.8,0.6,3.6,0.6l0.3,3.9
					c-1,1.2-2.4,2.3-4.2,3.2c-1.8,0.9-3.7,1.7-5.6,2.3c-1.9,0.6-3.9,1.1-5.9,1.4c-2,0.3-3.7,0.5-5.1,0.5c-4.8,0-9.4-1-13.7-3
					c-4.3-2-7.9-4.7-10.7-8.1c-3.4,3.4-7.6,6.3-12.5,8.7c-4.9,2.4-10.7,3.6-17.3,3.6c-13.3,0-23.4-2.6-30.4-7.8
					c-7-5.2-10.5-12.8-10.5-22.6c0-8.6,2.4-15.6,7.2-20.8c4.8-5.2,10.6-9.3,17.3-12.4c6.7-3,13.9-5.1,21.4-6.2
					c7.5-1.1,14-1.8,19.4-2v-11.2c0-2.4-0.4-4.8-1.2-7.2c-0.8-2.4-2-4.6-3.6-6.5c-1.6-1.9-3.6-3.5-6-4.8c-2.4-1.3-5.3-2-8.7-2
					c-5,0-9.3,1.3-12.8,3.9c-3.5,2.6-5.1,6.2-4.7,10.9c0.2,3.2-0.9,6.2-3.2,9c-2.3,2.8-5.7,4.2-10.1,4.2c-3.6,0-6.8-1.1-9.5-3.3
					c-2.7-2.2-4.3-4.9-4.7-8.1c-0.2-3.6,0.9-7.2,3.3-10.9c2.4-3.6,5.8-6.9,10.2-9.9c4.4-3,9.5-5.4,15.4-7.2
					c5.8-1.8,12.1-2.7,18.7-2.7c9,0,16.9,1.3,23.7,3.9c6.7,2.6,12.3,6,16.7,10.1c4.4,4.1,7.8,8.6,10.1,13.6
					c2.3,4.9,3.7,9.7,4.1,14.3c0.4,7.4,0.5,14.8,0.3,22.2C765.7,879.8,765.6,887.6,765.6,895.8z M712.5,909.4c2.8,0,5.6-0.6,8.3-1.7
					c2.7-1.1,5.3-2.5,7.7-4.1c-0.2-1-0.4-2.1-0.5-3.2c-0.1-1.1-0.2-2.3-0.2-3.5v-32.3c-4.6,1.2-8.9,2.9-13,5
					c-4,2.1-7.5,4.5-10.5,7.1c-3,2.6-5.3,5.4-6.9,8.3c-1.6,2.9-2.3,5.9-2.1,8.9c0.4,3.8,1.8,7.3,4.1,10.5
					C701.7,907.8,706.1,909.4,712.5,909.4z"/>
				<path class="st4" d="M794.5,920.2v-89.5c0-5.4-1.1-8.9-3.2-10.4c-2.1-1.5-4.6-2.3-7.4-2.3v-3.9c2.2-1.6,4.4-3,6.6-4.2
					c2-1,4.3-2,6.8-2.9c2.5-0.9,5.2-1.4,8-1.4c5.6,0,10.5,1.5,14.8,4.5s6.9,8.4,8.1,16.3c4.8-4.6,10.4-8.8,16.9-12.5
					c6.4-3.7,13.6-5.6,21.4-5.6c6.2,0,11.6,1.3,16,3.9c4.4,2.6,7.5,7,9.3,13.3c3.8-4,8.6-7.8,14.5-11.5c5.8-3.6,12.7-5.4,20.5-5.4
					c3.6,0,7.1,0.5,10.5,1.4c3.4,0.9,6.5,2.5,9.3,4.8c2.8,2.3,5.1,5.5,6.8,9.6c1.7,4.1,2.6,9.3,2.6,15.5v62.4c0,7,2.9,10.5,8.7,10.5
					v4.2c-2.2,1.8-4.4,3.3-6.6,4.5c-2,1-4.3,2-6.8,2.9c-2.5,0.9-5.2,1.4-8,1.4c-7.6,0-13-2.3-16.1-6.9c-3.1-4.6-4.7-10.1-4.7-16.6
					v-58.8c0-5.8-0.8-9.8-2.4-11.9c-1.6-2.1-4.1-3.2-7.5-3.2c-3.2,0-6.5,1.2-9.8,3.6c-3.3,2.4-6.4,5-9.2,7.8v80.2h-32.9v-76.6
					c0-4.6-0.7-8.2-2-10.9c-1.3-2.6-4-3.9-8-3.9c-3.4,0-7.1,1.3-11,3.8c-3.9,2.5-7.6,5.5-11,8.9v78.7H794.5z"/>
			</g>
		</g>
		<g>
			<g>
				<path class="st5" d="M78.2,839.6v61.8h57.9c3.4,0,5.9-0.5,7.5-1.5c0.8-0.4,1.5-0.9,2.1-1.5l3,2.4c0,4.7-1.4,8.9-4.2,12.7
					c-2.8,3.8-7.4,5.7-13.9,5.7H42.3V758.6c0-3-1.1-5.2-3.3-6.5c-2.2-1.3-5-2-8.4-2l-0.3-4.2c0.6-0.6,1.5-1.3,2.7-2.1
					c1-0.4,2.5-0.9,4.4-1.4c1.9-0.5,4.5-0.8,7.7-0.8h91c3.4,0,5.9-0.4,7.5-1.2c0.8-0.6,1.5-1.2,2.1-1.8l3,2.4
					c0,4.8-1.4,9.1-4.2,12.8c-2.8,3.7-7.4,5.6-13.9,5.6H78.2v62.4h34.1c3.4,0,5.9-0.5,7.5-1.5c0.8-0.6,1.5-1.2,2.1-1.8l3,2.4
					c0,4.9-1.4,9.2-4.2,13c-2.8,3.8-7.4,5.7-13.9,5.7H78.2z"/>
				<path class="st5" d="M265.1,894.8c0,3.2,0.6,6.6,2,10.1c1.3,3.5,3.7,5.9,7.1,7.1c1.6,0.4,2.8,0.6,3.6,0.6l0.3,3.9
					c-1,1.2-2.4,2.3-4.2,3.2c-1.8,0.9-3.7,1.7-5.6,2.3c-1.9,0.6-3.9,1.1-5.9,1.4c-2,0.3-3.7,0.5-5.1,0.5c-4.8,0-9.4-1-13.7-3
					c-4.3-2-7.9-4.7-10.7-8.1c-3.4,3.4-7.6,6.3-12.5,8.7c-4.9,2.4-10.7,3.6-17.3,3.6c-13.3,0-23.4-2.6-30.4-7.8
					c-7-5.2-10.5-12.8-10.5-22.6c0-8.6,2.4-15.6,7.2-20.8c4.8-5.2,10.6-9.3,17.3-12.4c6.7-3,13.9-5.1,21.4-6.2
					c7.5-1.1,14-1.8,19.4-2V842c0-2.4-0.4-4.8-1.2-7.2c-0.8-2.4-2-4.6-3.6-6.5c-1.6-1.9-3.6-3.5-6-4.8c-2.4-1.3-5.3-2-8.7-2
					c-5,0-9.3,1.3-12.8,3.9c-3.5,2.6-5.1,6.2-4.7,10.9c0.2,3.2-0.9,6.2-3.2,9c-2.3,2.8-5.7,4.2-10.1,4.2c-3.6,0-6.8-1.1-9.5-3.3
					c-2.7-2.2-4.3-4.9-4.7-8.1c-0.2-3.6,0.9-7.2,3.3-10.9c2.4-3.6,5.8-6.9,10.2-9.9c4.4-3,9.5-5.4,15.4-7.2
					c5.8-1.8,12.1-2.7,18.7-2.7c9,0,16.9,1.3,23.7,3.9c6.7,2.6,12.3,6,16.7,10.1c4.4,4.1,7.8,8.6,10.1,13.6
					c2.3,4.9,3.7,9.7,4.1,14.3c0.4,7.4,0.5,14.8,0.3,22.2C265.2,878.8,265.1,886.6,265.1,894.8z M212,908.4c2.8,0,5.6-0.6,8.3-1.7
					c2.7-1.1,5.3-2.5,7.7-4.1c-0.2-1-0.4-2.1-0.5-3.2c-0.1-1.1-0.2-2.3-0.2-3.5v-32.3c-4.6,1.2-8.9,2.9-13,5
					c-4,2.1-7.5,4.5-10.5,7.1c-3,2.6-5.3,5.4-6.9,8.3c-1.6,2.9-2.3,5.9-2.1,8.9c0.4,3.8,1.8,7.3,4.1,10.5
					C201.2,906.7,205.6,908.4,212,908.4z"/>
				<path class="st5" d="M275.3,813.1H297v-27.4h35.9v27.4h22v15.7h-22v75.4c0,3.4,1.3,5.8,3.9,7.2c2.6,1.4,5.6,2.1,9,2.1l0.6,4.2
					c-2.2,1.4-4.5,2.6-6.9,3.6c-2.2,1-4.8,1.9-7.7,2.6c-2.9,0.7-6,1.1-9.4,1.1c-10,0-16.7-2.3-20.2-6.8c-3.5-4.5-5.2-10.6-5.2-18.2
					v-71.1h-21.7V813.1z"/>
			</g>
			<g>
				<path class="st6" d="M498,849.9c-3.4,0-6.1,0.2-8,0.6c-1.9,0.4-3.5,0.8-4.7,1.2c-1.4,0.6-2.4,1.2-3,1.8l-3-2.4
					c0-4.8,1.4-9.1,4.2-12.8c2.8-3.7,7.4-5.7,13.9-5.9H539c3.4,0,5.9-0.5,7.5-1.5c0.8-0.6,1.5-1.2,2.1-1.8l3,2.4
					c0,4.8-1.5,9.1-4.4,12.8c-2.9,3.7-7.6,5.7-14,5.9v45.2h0.3c-3,3-7.1,6.1-12.4,9.2c-5.2,3.1-11.1,5.9-17.5,8.3
					c-6.4,2.4-13.2,4.4-20.3,6c-7.1,1.6-14,2.4-20.6,2.4c-13.9,0-26.5-2-37.8-5.9c-11.4-3.9-21.2-9.5-29.5-16.6
					c-8.3-7.1-15-15.6-20-25.4c-5-9.8-7.9-20.5-8.7-32.2c-1-13.9,0.5-27.1,4.5-39.5c4-12.5,10.2-23.4,18.7-32.9
					c8.4-9.5,19.1-17,31.9-22.5c12.9-5.5,27.6-8.3,44.3-8.3c9.2,0,18.1,1.2,26.7,3.5c8.5,2.3,16.1,5.5,22.6,9.5
					c6.5,4,11.8,8.8,15.7,14.3c3.9,5.5,5.9,11.4,5.9,17.6c0,3-0.5,6.1-1.5,9.3c-1,3.2-2.6,6.2-4.7,8.9c-2.1,2.7-4.9,4.9-8.3,6.6
					c-3.4,1.7-7.5,2.6-12.4,2.6c-6.8,0-12.2-2.2-16-6.6c-3.8-4.4-5.7-9.3-5.7-14.7c0-3.2,0.6-6,1.7-8.4c1.1-2.4,2.5-4.4,4.1-6
					c1.8-2,3.8-3.7,6-5.1c-2.4-3-5.4-5.7-9-8.1c-3.2-2.2-7.3-4.1-12.2-5.8c-4.9-1.7-10.9-2.5-17.9-2.5c-9,0-16.9,2.3-23.7,6.8
					c-6.7,4.5-12.4,10.2-16.9,17.2c-4.5,6.9-7.9,14.6-10.2,22.9c-2.3,8.3-3.5,16.3-3.5,24c0,9.2,1.7,18.4,5,27.4
					c3.3,9,8,17.2,14,24.4c6,7.2,13.3,13.1,21.7,17.5c8.4,4.4,17.9,6.6,28.3,6.6c3.8,0,7.6-0.2,11.5-0.8c3.8-0.5,7.4-1.3,10.9-2.3
					V849.9z"/>
				<path class="st6" d="M600.8,919.2h-35.3v-87.1c0-5.2-1.2-8.6-3.6-10.1c-2.4-1.5-5-2.3-7.8-2.3l-0.3-3.9c2.2-1.6,4.5-3,6.9-4.2
					c2.2-1,4.6-2,7.2-2.9c2.6-0.9,5.3-1.4,8.1-1.4c5.8,0,10.9,1.5,15.4,4.4c4.4,2.9,7.3,8.2,8.7,15.8c6.4-5.8,12.3-10.1,17.5-12.8
					c5.2-2.7,10.6-4.1,16.3-4.1c5.2,0,9.4,1.2,12.5,3.5c3.1,2.3,4.9,5.5,5.3,9.5c0.4,4-0.6,7.8-3,11.3c-2.4,3.5-6.6,5.3-12.7,5.3
					c-3.8,0-6.8-0.6-9-1.8c-2.2-1.2-3.8-2.6-4.8-4.2c-1.4-1.8-2.3-3.9-2.7-6.3c-1.2,1-2.8,2.1-4.8,3.3c-1.6,1.2-3.6,2.7-6,4.4
					c-2.4,1.7-5,3.9-7.8,6.5V919.2z"/>
				<path class="st6" d="M764.5,894.8c0,3.2,0.7,6.6,2,10.1c1.3,3.5,3.7,5.9,7.1,7.1c1.6,0.4,2.8,0.6,3.6,0.6l0.3,3.9
					c-1,1.2-2.4,2.3-4.2,3.2c-1.8,0.9-3.7,1.7-5.6,2.3c-1.9,0.6-3.9,1.1-5.9,1.4c-2,0.3-3.7,0.5-5.1,0.5c-4.8,0-9.4-1-13.7-3
					c-4.3-2-7.9-4.7-10.7-8.1c-3.4,3.4-7.6,6.3-12.5,8.7c-4.9,2.4-10.7,3.6-17.3,3.6c-13.3,0-23.4-2.6-30.4-7.8
					c-7-5.2-10.5-12.8-10.5-22.6c0-8.6,2.4-15.6,7.2-20.8c4.8-5.2,10.6-9.3,17.3-12.4c6.7-3,13.9-5.1,21.4-6.2
					c7.5-1.1,14-1.8,19.4-2V842c0-2.4-0.4-4.8-1.2-7.2c-0.8-2.4-2-4.6-3.6-6.5c-1.6-1.9-3.6-3.5-6-4.8c-2.4-1.3-5.3-2-8.7-2
					c-5,0-9.3,1.3-12.8,3.9c-3.5,2.6-5.1,6.2-4.7,10.9c0.2,3.2-0.9,6.2-3.2,9c-2.3,2.8-5.7,4.2-10.1,4.2c-3.6,0-6.8-1.1-9.5-3.3
					c-2.7-2.2-4.3-4.9-4.7-8.1c-0.2-3.6,0.9-7.2,3.3-10.9c2.4-3.6,5.8-6.9,10.2-9.9c4.4-3,9.5-5.4,15.4-7.2
					c5.8-1.8,12.1-2.7,18.7-2.7c9,0,16.9,1.3,23.7,3.9c6.7,2.6,12.3,6,16.7,10.1c4.4,4.1,7.8,8.6,10.1,13.6
					c2.3,4.9,3.7,9.7,4.1,14.3c0.4,7.4,0.5,14.8,0.3,22.2C764.6,878.8,764.5,886.6,764.5,894.8z M711.4,908.4c2.8,0,5.6-0.6,8.3-1.7
					c2.7-1.1,5.3-2.5,7.7-4.1c-0.2-1-0.4-2.1-0.5-3.2c-0.1-1.1-0.2-2.3-0.2-3.5v-32.3c-4.6,1.2-8.9,2.9-13,5
					c-4,2.1-7.5,4.5-10.5,7.1c-3,2.6-5.3,5.4-6.9,8.3c-1.6,2.9-2.3,5.9-2.1,8.9c0.4,3.8,1.8,7.3,4.1,10.5
					C700.6,906.7,705,908.4,711.4,908.4z"/>
				<path class="st6" d="M793.4,919.2v-89.5c0-5.4-1.1-8.9-3.2-10.4c-2.1-1.5-4.6-2.3-7.4-2.3v-3.9c2.2-1.6,4.4-3,6.6-4.2
					c2-1,4.3-2,6.8-2.9c2.5-0.9,5.2-1.4,8-1.4c5.6,0,10.5,1.5,14.8,4.5c4.2,3,6.9,8.4,8.1,16.3c4.8-4.6,10.4-8.8,16.9-12.5
					c6.4-3.7,13.6-5.6,21.4-5.6c6.2,0,11.6,1.3,16,3.9c4.4,2.6,7.5,7,9.3,13.3c3.8-4,8.6-7.8,14.5-11.5c5.8-3.6,12.7-5.4,20.5-5.4
					c3.6,0,7.1,0.5,10.5,1.4c3.4,0.9,6.5,2.5,9.3,4.8c2.8,2.3,5.1,5.5,6.8,9.6c1.7,4.1,2.6,9.3,2.6,15.5v62.4c0,7,2.9,10.5,8.7,10.5
					v4.2c-2.2,1.8-4.4,3.3-6.6,4.5c-2,1-4.3,2-6.8,2.9c-2.5,0.9-5.2,1.4-8,1.4c-7.6,0-13-2.3-16.1-6.9c-3.1-4.6-4.7-10.1-4.7-16.6
					v-58.8c0-5.8-0.8-9.8-2.4-11.9c-1.6-2.1-4.1-3.2-7.5-3.2c-3.2,0-6.5,1.2-9.8,3.6c-3.3,2.4-6.4,5-9.2,7.8v80.2h-32.9v-76.6
					c0-4.6-0.7-8.2-2-10.9c-1.3-2.6-4-3.9-8-3.9c-3.4,0-7.1,1.3-11,3.8c-3.9,2.5-7.6,5.5-11,8.9v78.7H793.4z"/>
			</g>
		</g>
		<g>
			<path class="st7" d="M794.5,388.2c35.8-15.9,6.3-66.3-27.1-40.5c-24.3,18.8-46.8,69.4-57,98.6
				C740.7,416.9,760.6,403.3,794.5,388.2z"/>
			<path class="st5" d="M205.4,276.7c27.9,20.6,43.3,37.1,65,69.9c-3.5-28.6-13.7-79.3-32.1-101.4
				C211.4,213.1,175.6,254.7,205.4,276.7z"/>
			<circle class="st8" cx="720.4" cy="305" r="22.1"/>
			<path class="st9" d="M652.5,433.9c0-8.3-0.6-16.4-1.6-24.4l-395.4-17.3c-3.2,13.4-4.8,27.4-4.8,41.7s1.7,28.3,4.8,41.7
				l395.4-17.3C652,450.4,652.5,442.2,652.5,433.9z"/>
			<path class="st10" d="M255.5,392.2c-2.1,8.9-3.5,18-4.2,27.2c27.5,22.7,79.9,38.1,140.1,38.1c72.3,0,133.5-22.2,153.6-52.7
				L255.5,392.2z"/>
			<path class="st8" d="M645.5,305L317,333.7c-7.9,13.3-14.3,27.5-18.7,42.5l391.1,17.1C683,360.1,667.5,329.8,645.5,305z"/>
			<path class="st11" d="M305.9,355.3c28.1,10.5,68.1,17,112.5,17c84.9,0,153.7-23.8,153.7-53.3c0-2.5-0.5-5-1.5-7.5L317,333.7
				C312.8,340.6,309.1,347.8,305.9,355.3z"/>
			<path class="st7" d="M616.6,289.6c-36.6-36.1-88-58.6-144.9-58.6c-70.2,0-132,34.2-167.9,86L616.6,289.6z"/>
			<path class="st12" d="M533.4,240.2c-19.4-5.9-40.2-9.2-61.7-9.2c-56.8,0-108.1,22.4-144.6,58.4c18.7,4.4,39.3,6.8,61,6.8
				C455.4,296.2,512.6,272.7,533.4,240.2z"/>
			<path class="st13" d="M689.4,474.5l-391.1,17.1c5.3,18,13.4,35,23.7,50.4l329,14.4C670.1,532.9,683.6,505,689.4,474.5z"/>
			<path class="st14" d="M322,542.1l98,4.3c46.8-7.9,80.2-28.2,80.2-52.1c0-3.9-0.9-7.7-2.6-11.3l-199.3,8.7
				C303.6,509.7,311.7,526.6,322,542.1z"/>
			<path class="st15" d="M622.5,572.1l-313.2-13.7c33.1,43.1,84.8,72.5,143.9,77.6c4.1,0.4,7.7,2.8,9.6,6.4c1.9,3.6,1.8,8-0.2,11.6
				c-7.9,13.7-16.1,23.5-16.1,38.1c0,13.9,11.2,25.1,25.1,25.1c13.9,0,25.1-11.2,25.1-25.1c0-14.7-8.2-24.4-16.1-38.1
				c-2-3.6-2.1-7.9-0.2-11.6c1.9-3.6,5.5-6.1,9.6-6.4C542.7,631.5,589.5,607.7,622.5,572.1z"/>
			<path class="st16" d="M309.3,558.5c18.3,23.8,42.3,43.5,70.1,57.1c33.1,16.2,72.2,15.2,104.3-2.7c20-11.2,34.2-27,39-45.1
				L309.3,558.5z"/>
			<path class="st16" d="M471.7,707.3c-8.3,0-15.1-6.8-15.1-15.1c0-8.9,4.2-15.7,9.9-25.1c1.6-2.6,3.2-5.2,4.8-8.1
				c0.1-0.2,0.2-0.4,0.3-0.6c0.1,0.2,0.4,0.4,0.3,0.6C465.9,672.8,493.3,707.3,471.7,707.3z"/>
			<g>
				<path class="st17" d="M471.7,707.3c-7.1,2.1-14.8-2.9-17.1-9.8c-2.3-6.8-0.1-14.7,3.5-20.4c2.4-3.8,5.2-7,8.5-10
					c-2.2,8-6.4,15.3-6.9,23.4C458.9,698.4,463.8,705,471.7,707.3L471.7,707.3z"/>
			</g>
			<g>
				<path class="st17" d="M356.1,277.9c38.2-36.8,98.1-50.1,148.5-34.3C450.9,242.7,403.7,252.9,356.1,277.9L356.1,277.9z"/>
			</g>
			<g>
				<path class="st5" d="M463,210c-6.4-10.3-14.3-19.7-23.2-27.8c-10-9.1-21.4-16.5-33.6-21.9c11.6,6.5,22.1,14.9,30.9,24.5
					c8.7,9.4,15.8,20.2,21.1,31.6c-63.7,14.4-64.4-57.7-87.1-77.7C418.7,133,468.6,165.4,463,210z"/>
				<path class="st9" d="M529.6,136.4c-14.2,10.3-26.6,22.8-36.7,36.8c-9.9,13.7-17.6,28.8-22.8,44.6
					c85.5,9.1,75.4-85.3,102.1-114.9c-63-0.4-123.3,49.7-109.2,107.1c6.8-14.5,15.6-27.9,26.1-39.8
					C500.8,156.8,514.5,145.4,529.6,136.4z"/>
			</g>
		</g>
	</g>
	<rect x="1203.6" y="256.5" style="fill:none;" width="4.9" height="0"/>
</g>
</svg>
